# xmcd CD database file
# Copyright (C) 1997 Ti Kan
# 
# Track frame offsets:
#     150
#     19472
#     32485
#     47007
#     59592
# 
# Disc length: 1016 seconds
# 
# Revision: 1
# Processed by: cddbd v1.4b41PL1 Copyright (c) Steve Scherf et al.
# Submitted via: DiscPlay 4.0.3
# 
DISCID=3e03f605
DTITLE=Prairie Thunder - Thunderstruck
DYEAR=1900
DGENRE=
TTITLE0=Prairie Thunder
TTITLE1=Biggest Fish In The  pond
TTITLE2=Bury Me With My Boots On
TTITLE3=That Ol' Whistle Rockin'
TTITLE4=With The Angels She Flies
EXTD=
EXTT0=
EXTT1=
EXTT2=
EXTT3=
EXTT4=
PLAYORDER=
